<svg xmlns="http://www.w3.org/2000/svg" viewBox="0 0 133.13 32.81">
<defs>
<style>.cls-1{fill:#4271b8;}.cls-2{fill:#fff;}</style>
</defs>
<title>Asset 1</title>
<g id="Layer_2" data-name="Layer 2">
<g id="Layer_1-2" data-name="Layer 1">
<rect class="cls-1" x="32.39" y="2.49" width="5.66" height="4.67" rx="1.48"/>
<path class="cls-2" d="M43.15,25.76v-21h7.64A9.63,9.63,0,0,1,56.2,6a4.16,4.16,0,0,1,1.89,3.64,4.33,4.33,0,0,1-1.15,3A6.05,6.05,0,0,1,54,14.42v.06a5.84,5.84,0,0,1,3.58,1.66,4.59,4.59,0,0,1,1.34,3.35,5.62,5.62,0,0,1-2.06,4.58,8.64,8.64,0,0,1-5.64,1.69ZM47.88,8.24v5H50a3.42,3.42,0,0,0,2.3-.71,2.39,2.39,0,0,0,.85-1.95C53.11,9,52,8.24,49.65,8.24Zm0,8.5v5.54h2.56A3.94,3.94,0,0,0,53,21.51a2.53,2.53,0,0,0,.93-2.08,2.35,2.35,0,0,0-.91-2,4.06,4.06,0,0,0-2.56-.72Z"/>
<path class="cls-1" d="M64.27,8.39a2.69,2.69,0,0,1-1.92-.7A2.22,2.22,0,0,1,61.6,6a2.15,2.15,0,0,1,.75-1.7,3.14,3.14,0,0,1,3.85,0A2.18,2.18,0,0,1,66.94,6a2.22,2.22,0,0,1-.74,1.72A2.77,2.77,0,0,1,64.27,8.39Zm2.28,17.37H61.93v-15h4.62Z"/>
<path class="cls-1" d="M79.52,25.59a6.9,6.9,0,0,1-3.09.54c-3.26,0-4.9-1.7-4.9-5.09V14.17H69.1V10.76h2.43V7.52l4.62-1.31v4.55h3.37v3.41H76.15v6.07q0,2.34,1.86,2.34a3.17,3.17,0,0,0,1.51-.42Z"/>
<path class="cls-2" d="M96.83,24.05a8.46,8.46,0,0,1-2.41,6.46c-1.62,1.53-4,2.3-7,2.3a11,11,0,0,1-4.8-.87V28.05a9.16,9.16,0,0,0,4.67,1.34,5,5,0,0,0,3.63-1.23,4.46,4.46,0,0,0,1.29-3.37V23.61h0a5.19,5.19,0,0,1-4.68,2.52,5.63,5.63,0,0,1-4.55-2,8.18,8.18,0,0,1-1.69-5.42,9.12,9.12,0,0,1,1.88-6.05A6.09,6.09,0,0,1,88,10.4a4.57,4.57,0,0,1,4.11,2.1h0V10.76h4.63Zm-4.57-5.5V17.37a3.66,3.66,0,0,0-.84-2.43,2.71,2.71,0,0,0-2.19-1,2.84,2.84,0,0,0-2.42,1.2,5.7,5.7,0,0,0-.88,3.39,4.73,4.73,0,0,0,.84,3,2.72,2.72,0,0,0,2.28,1.09,2.86,2.86,0,0,0,2.33-1.1A4.55,4.55,0,0,0,92.26,18.55Z"/>
<path class="cls-2" d="M115,25.76h-4.61V23.48h-.07a5.27,5.27,0,0,1-4.59,2.65c-3.48,0-5.21-2.11-5.21-6.32v-9h4.61V19.4q0,3.18,2.52,3.18a2.49,2.49,0,0,0,2-.87,3.5,3.5,0,0,0,.75-2.36V10.76H115Z"/>
<path class="cls-2" d="M133.13,10.76,127,27q-2.21,5.85-6.62,5.85a8.56,8.56,0,0,1-2.77-.38V28.74a3.87,3.87,0,0,0,2,.54,2.51,2.51,0,0,0,2.5-1.69l.79-1.86-6.1-15H122l2.8,9.13a12.5,12.5,0,0,1,.41,2h.06a12.34,12.34,0,0,1,.48-2l2.83-9.16Z"/>
<rect class="cls-1" x="32.39" y="9.36" width="5.66" height="4.67" rx="1.48"/>
<rect class="cls-1" x="32.39" y="16.23" width="5.66" height="4.67" rx="1.48"/>
<rect class="cls-1" x="32.49" y="23.1" width="5.66" height="4.67" rx="1.48"/>
<rect class="cls-1" y="2.49" width="5.66" height="4.67" rx="1.48"/>
<rect class="cls-1" y="9.36" width="5.66" height="4.67" rx="1.48"/>
<rect class="cls-1" y="16.23" width="5.66" height="4.67" rx="1.48"/>
<rect class="cls-1" x="0.11" y="23.1" width="5.66" height="4.67" rx="1.48"/>
<rect class="cls-1" x="3.74" width="30.8" height="30.8" rx="2.46"/>
<path class="cls-2" d="M11.26,2.8l4,4c.43,2-2.44,4.89-4.45,4.45l-4-4a6.63,6.63,0,0,0-.27,1.88,6.59,6.59,0,0,0,7.1,6.56,3.37,3.37,0,0,1,2.64,1L26.42,26.82a3.11,3.11,0,0,0,5.31-2.27,3.08,3.08,0,0,0-.91-2.14L20.68,12.27a3.42,3.42,0,0,1-1-2.64,6.57,6.57,0,0,0-6.56-7.1A6.73,6.73,0,0,0,11.26,2.8Z"/>
<circle class="cls-1" cx="28.72" cy="24.61" r="0.9"/>
</g>
</g>
</svg>